<svg height="512pt" viewBox="-60 0 512 512" width="512pt" xmlns="http://www.w3.org/2000/svg"><path d="m391.5 195.75c0 39.300781-11.75 77.308594-33.96875 109.941406-21.410156 31.429688-51.0625 55.6875-85.921875 70.347656l-52.917969 120.949219c-3.980468 9.121094-12.992187 15.011719-22.941406 15.011719s-18.960938-5.890625-22.941406-15.019531l-52.917969-120.941407c-34.859375-14.660156-64.511719-38.917968-85.921875-70.347656-22.21875-32.632812-33.96875-70.640625-33.96875-109.941406 0-107.941406 87.808594-195.75 195.75-195.75s195.75 87.808594 195.75 195.75zm0 0" fill="#ff664d"/><path d="m391.5 195.75c0 39.300781-11.75 77.308594-33.96875 109.941406-21.410156 31.429688-51.0625 55.6875-85.921875 70.347656l-52.917969 120.949219c-3.980468 9.121094-12.992187 15.011719-22.941406 15.011719v-512c107.941406 0 195.75 87.808594 195.75 195.75zm0 0" fill="#dd311b"/><path d="m341.769531 195.140625c0 80.507813-65.507812 146.007813-146.019531 146.007813s-146.019531-65.5-146.019531-146.007813c0-80.519531 65.507812-146.019531 146.019531-146.019531s146.019531 65.5 146.019531 146.019531zm0 0" fill="#f7ecd9"/><path d="m341.769531 195.140625c0 80.507813-65.507812 146.007813-146.019531 146.007813v-292.027344c80.511719 0 146.019531 65.5 146.019531 146.019531zm0 0" fill="#eacd9d"/><path d="m259.941406 215.398438-50.320312 50.320312c-3.710938 3.703125-8.632813 5.742188-13.871094 5.742188s-10.171875-2.039063-13.871094-5.75l-50.320312-50.3125c-12.078125-10.777344-18.328125-26.777344-16.738282-42.9375 2.308594-23.441407 20.941407-42.492188 44.300782-45.28125 13.328125-1.601563 26.347656 2.03125 36.628906 9.78125 10.289062-7.75 23.289062-11.382813 36.621094-9.789063 23.359375 2.796875 42 21.839844 44.308594 45.277344 1.589843 16.160156-4.660157 32.171875-16.738282 42.949219zm0 0" fill="#ff664d"/><path d="m259.941406 215.398438-50.320312 50.320312c-3.710938 3.703125-8.632813 5.742188-13.871094 5.742188v-134.5c10.289062-7.75 23.289062-11.382813 36.621094-9.789063 23.359375 2.796875 42 21.839844 44.308594 45.277344 1.589843 16.160156-4.660157 32.171875-16.738282 42.949219zm0 0" fill="#dd311b"/></svg>