<svg height="512pt" viewBox="0 0 512 512.00002" width="512pt" xmlns="http://www.w3.org/2000/svg"><path d="m512 249.699219-43.300781 42.898437h-405.898438l-62.800781-42.898437 69.699219-68.699219h372.601562zm0 0" fill="#cc2e43"/><path d="m512 249.699219-43.300781 42.898437h-212.699219v-111.597656h186.300781zm0 0" fill="#ae2538"/><path d="m0 249.699219h512v262.300781h-512zm0 0" fill="#d2c5c2"/><path d="m256 249.699219h256v262.300781h-256zm0 0" fill="#c4b3af"/><path d="m121 121h270v391h-270zm0 0" fill="#ede9e8"/><path d="m256 121h135v391h-135zm0 0" fill="#dfd7d5"/><path d="m256 0-192.898438 151h385.796876zm0 0" fill="#e63950"/><path d="m448.898438 151h-192.898438v-151zm0 0" fill="#cc2e43"/><path d="m421 301h30v30h-30zm0 0" fill="#3c1b13"/><path d="m421 361h30v30h-30zm0 0" fill="#3c1b13"/><path d="m61 301h30v30h-30zm0 0" fill="#582b1f"/><path d="m61 361h30v30h-30zm0 0" fill="#582b1f"/><path d="m421 421h30v30h-30zm0 0" fill="#3c1b13"/><path d="m61 421h30v30h-30zm0 0" fill="#582b1f"/><path d="m197.800781 320.800781h114.597657v191.199219h-114.597657zm0 0" fill="#90e36a"/><path d="m256 320.800781h56.398438v191.199219h-56.398438zm0 0" fill="#70da40"/><path d="m181 301v211h30v-121h30v121h30v-121h30v121h30v-211zm120 60h-90v-30h90zm0 0" fill="#663325"/><path d="m331 301v211h-30v-121h-30v121h-15v-151h45v-30h-45v-30zm0 0" fill="#582b1f"/><path d="m256 181c-24.902344 0-45 20.097656-45 45 0 24 19.5 45 45 45s45-21 45-45c0-24.902344-20.097656-45-45-45zm0 0" fill="#cc2e43"/><path d="m256 271v-90c24.902344 0 45 20.097656 45 45 0 24-19.5 45-45 45zm0 0" fill="#ae2538"/><path d="m271 226c0 8.398438-6.597656 15-15 15s-15-6.601562-15-15c0-8.402344 6.597656-15 15-15s15 6.597656 15 15zm0 0" fill="#d2c5c2"/><path d="m256 241v-30c8.402344 0 15 6.597656 15 15 0 8.398438-6.597656 15-15 15zm0 0" fill="#c4b3af"/></svg>