<?xml version="1.0" encoding="utf-8"?>
<!-- Generator: Adobe Illustrator 16.0.4, SVG Export Plug-In . SVG Version: 6.00 Build 0)  -->
<!DOCTYPE svg PUBLIC "-//W3C//DTD SVG 1.1//EN" "http://www.w3.org/Graphics/SVG/1.1/DTD/svg11.dtd">
<svg version="1.1" id="Layer_1" xmlns="http://www.w3.org/2000/svg" xmlns:xlink="http://www.w3.org/1999/xlink" x="0px" y="0px"
	 width="1000px" height="566px" viewBox="0 0 1000 566" style="enable-background:new 0 0 1000 566;" xml:space="preserve">
<style type="text/css">
<![CDATA[
	.st0{opacity:0.1;clip-path:url(#SVGID_6_);fill:#231F20;}
	.st1{fill:#88DD57;}
	.st2{opacity:0.2;clip-path:url(#SVGID_8_);fill:#231F20;}
	.st3{fill:#EDE1C3;}
	.st4{opacity:0.2;fill:#231F20;}
	.st5{fill:#5B5851;}
	.st6{clip-path:url(#SVGID_2_);}
	.st7{clip-path:url(#SVGID_4_);}
	.st8{opacity:0.4;fill:#231F20;}
	.st9{fill:#FF7171;}
	.st10{fill:#FFABFF;}
	.st11{fill:#FFF573;}
	.st12{fill:#FFF7E1;}
	.st13{opacity:0.1;fill:#231F20;}
	.st14{fill:#3EB6FF;}
	.st15{fill:#755DAF;}
	.st16{opacity:0.3;fill:#231F20;}
]]>
</style>
<g>
	<path class="st13" d="M880.188,487.675c0,16.759-170.213,30.349-380.188,30.349c-209.973,0-380.188-13.59-380.188-30.349
		c0-16.761,170.214-30.347,380.188-30.347C709.975,457.328,880.188,470.914,880.188,487.675z"/>
	<g>
		<rect x="216.06" y="443.396" class="st12" width="567.879" height="44.279"/>
		<rect x="216.06" y="443.396" class="st16" width="567.879" height="44.279"/>
		<rect x="314.721" y="61.184" class="st12" width="45.058" height="426.491"/>
		<rect x="311.096" y="58.465" class="st3" width="52.307" height="2.847"/>
		<rect x="311.096" y="51.775" class="st3" width="52.307" height="2.847"/>
		<rect x="311.096" y="54.623" class="st12" width="52.307" height="3.799"/>
		<rect x="311.096" y="47.977" class="st12" width="52.307" height="3.799"/>
		<rect x="378.423" y="443.396" class="st12" width="6.215" height="44.279"/>
		<rect x="440.571" y="443.396" class="st12" width="6.214" height="44.279"/>
		<rect x="216.06" y="443.396" class="st12" width="6.215" height="44.279"/>
		<rect x="278.208" y="443.396" class="st12" width="6.215" height="44.279"/>
		<rect x="502.719" y="443.396" class="st12" width="6.214" height="44.279"/>
		<rect x="450.669" y="121.778" class="st5" width="137.503" height="301.418"/>
		<rect x="564.866" y="443.396" class="st12" width="6.215" height="44.279"/>
		<rect x="627.015" y="443.396" class="st12" width="6.215" height="44.279"/>
		<rect x="592.834" y="121.778" class="st12" width="191.105" height="301.418"/>
		<g>
			<rect x="599.049" y="131.877" class="st5" width="20.004" height="5.438"/>
			<rect x="626.237" y="131.877" class="st5" width="10.36" height="5.438"/>
			<rect x="664.177" y="131.877" class="st5" width="20.003" height="5.438"/>
			<rect x="646.631" y="131.877" class="st5" width="10.36" height="5.438"/>
			<rect x="691.688" y="131.877" class="st5" width="20.005" height="5.438"/>
			<rect x="718.878" y="131.877" class="st5" width="10.358" height="5.438"/>
			<rect x="756.816" y="131.877" class="st5" width="20.002" height="5.438"/>
			<rect x="739.271" y="131.877" class="st5" width="10.359" height="5.438"/>
			<rect x="599.049" y="167.419" class="st5" width="20.004" height="5.438"/>
			<rect x="626.237" y="167.419" class="st5" width="10.36" height="5.438"/>
			<rect x="664.177" y="167.419" class="st5" width="20.003" height="5.438"/>
			<rect x="646.631" y="167.419" class="st5" width="10.36" height="5.438"/>
			<rect x="691.688" y="167.419" class="st5" width="20.005" height="5.438"/>
			<rect x="718.878" y="167.419" class="st5" width="10.358" height="5.438"/>
			<rect x="756.816" y="167.419" class="st5" width="20.002" height="5.438"/>
			<rect x="739.271" y="167.419" class="st5" width="10.359" height="5.438"/>
			<rect x="599.049" y="203.786" class="st5" width="20.004" height="5.438"/>
			<rect x="626.237" y="203.786" class="st5" width="10.36" height="5.438"/>
			<rect x="664.177" y="203.786" class="st5" width="20.003" height="5.438"/>
			<rect x="646.631" y="203.786" class="st5" width="10.36" height="5.438"/>
			<rect x="691.688" y="203.786" class="st5" width="20.005" height="5.438"/>
			<rect x="718.878" y="203.786" class="st5" width="10.358" height="5.438"/>
			<rect x="756.816" y="203.786" class="st5" width="20.002" height="5.438"/>
			<rect x="739.271" y="203.786" class="st5" width="10.359" height="5.438"/>
			<rect x="599.049" y="239.132" class="st5" width="20.004" height="5.438"/>
			<rect x="626.237" y="239.132" class="st5" width="10.36" height="5.438"/>
			<rect x="664.177" y="239.132" class="st5" width="20.003" height="5.438"/>
			<rect x="646.631" y="239.132" class="st5" width="10.36" height="5.438"/>
			<rect x="691.688" y="239.132" class="st5" width="20.005" height="5.438"/>
			<rect x="718.878" y="239.132" class="st5" width="10.358" height="5.438"/>
			<rect x="756.816" y="239.132" class="st5" width="20.002" height="5.438"/>
			<rect x="739.271" y="239.132" class="st5" width="10.359" height="5.438"/>
			<rect x="599.049" y="274.867" class="st5" width="20.004" height="5.438"/>
			<rect x="626.237" y="274.867" class="st5" width="10.36" height="5.438"/>
			<rect x="664.177" y="274.867" class="st5" width="20.003" height="5.438"/>
			<rect x="646.631" y="274.867" class="st5" width="10.36" height="5.438"/>
			<rect x="691.688" y="274.867" class="st5" width="20.005" height="5.438"/>
			<rect x="718.878" y="274.867" class="st5" width="10.358" height="5.438"/>
			<rect x="756.816" y="274.867" class="st5" width="20.002" height="5.438"/>
			<rect x="739.271" y="274.867" class="st5" width="10.359" height="5.438"/>
			<rect x="599.049" y="310.798" class="st5" width="20.004" height="5.438"/>
			<rect x="626.237" y="310.798" class="st5" width="10.36" height="5.438"/>
			<rect x="664.177" y="310.798" class="st5" width="20.003" height="5.438"/>
			<rect x="646.631" y="310.798" class="st5" width="10.36" height="5.438"/>
			<rect x="691.688" y="310.798" class="st5" width="20.005" height="5.438"/>
			<rect x="718.878" y="310.798" class="st5" width="10.358" height="5.438"/>
			<rect x="756.816" y="310.798" class="st5" width="20.002" height="5.438"/>
			<rect x="739.271" y="310.798" class="st5" width="10.359" height="5.438"/>
			<rect x="599.049" y="346.338" class="st5" width="20.004" height="5.438"/>
			<rect x="626.237" y="346.338" class="st5" width="10.36" height="5.438"/>
			<rect x="664.177" y="346.338" class="st5" width="20.003" height="5.438"/>
			<rect x="646.631" y="346.338" class="st5" width="10.36" height="5.438"/>
			<rect x="691.688" y="346.338" class="st5" width="20.005" height="5.438"/>
			<rect x="718.878" y="346.338" class="st5" width="10.358" height="5.438"/>
			<rect x="756.816" y="346.338" class="st5" width="20.002" height="5.438"/>
			<rect x="739.271" y="346.338" class="st5" width="10.359" height="5.438"/>
			<rect x="599.049" y="382.074" class="st5" width="20.004" height="5.438"/>
			<rect x="626.237" y="382.074" class="st5" width="10.36" height="5.438"/>
			<rect x="664.177" y="382.074" class="st5" width="20.003" height="5.438"/>
			<rect x="646.631" y="382.074" class="st5" width="10.36" height="5.438"/>
			<rect x="691.688" y="382.074" class="st5" width="20.005" height="5.438"/>
			<rect x="718.878" y="382.074" class="st5" width="10.358" height="5.438"/>
			<rect x="756.816" y="382.074" class="st5" width="20.002" height="5.438"/>
			<rect x="739.271" y="382.074" class="st5" width="10.359" height="5.438"/>
			<rect x="599.049" y="417.758" class="st5" width="20.004" height="5.438"/>
			<rect x="626.237" y="417.758" class="st5" width="10.36" height="5.438"/>
			<rect x="664.177" y="417.758" class="st5" width="20.003" height="5.438"/>
			<rect x="646.631" y="417.758" class="st5" width="10.36" height="5.438"/>
			<rect x="691.688" y="417.758" class="st5" width="20.005" height="5.438"/>
			<rect x="718.878" y="417.758" class="st5" width="10.358" height="5.438"/>
			<rect x="756.816" y="417.758" class="st5" width="20.002" height="5.438"/>
			<rect x="739.271" y="417.758" class="st5" width="10.359" height="5.438"/>
		</g>
		<rect x="689.162" y="443.396" class="st12" width="6.216" height="44.279"/>
		<rect x="751.311" y="443.396" class="st12" width="6.215" height="44.279"/>
		<rect x="592.834" y="121.778" class="st16" width="191.105" height="301.418"/>
		<rect x="359.779" y="121.778" class="st12" width="73.023" height="301.418"/>
		<g>
			<rect x="395.061" y="132.006" class="st5" width="20.003" height="5.438"/>
			<rect x="377.516" y="132.006" class="st5" width="10.36" height="5.438"/>
			<rect x="395.061" y="167.548" class="st5" width="20.003" height="5.438"/>
			<rect x="377.516" y="167.548" class="st5" width="10.36" height="5.438"/>
			<rect x="395.061" y="203.672" class="st5" width="20.003" height="5.438"/>
			<rect x="377.516" y="203.672" class="st5" width="10.36" height="5.438"/>
			<rect x="395.061" y="239.211" class="st5" width="20.003" height="5.438"/>
			<rect x="377.516" y="239.211" class="st5" width="10.36" height="5.438"/>
			<rect x="395.061" y="275.335" class="st5" width="20.003" height="5.438"/>
			<rect x="377.516" y="275.335" class="st5" width="10.36" height="5.438"/>
			<rect x="395.061" y="310.877" class="st5" width="20.003" height="5.438"/>
			<rect x="377.516" y="310.877" class="st5" width="10.36" height="5.438"/>
			<rect x="395.061" y="346.806" class="st5" width="20.003" height="5.438"/>
			<rect x="377.516" y="346.806" class="st5" width="10.36" height="5.438"/>
			<rect x="395.061" y="382.348" class="st5" width="20.003" height="5.438"/>
			<rect x="377.516" y="382.348" class="st5" width="10.36" height="5.438"/>
			<rect x="395.061" y="417.758" class="st5" width="20.003" height="5.438"/>
			<rect x="377.516" y="417.758" class="st5" width="10.36" height="5.438"/>
		</g>
		<rect x="359.779" y="121.778" class="st16" width="73.023" height="301.418"/>
		<rect x="228.49" y="121.778" class="st12" width="86.23" height="301.418"/>
		<g>
			<rect x="254.773" y="132.006" class="st5" width="20.004" height="5.438"/>
			<rect x="281.963" y="132.006" class="st5" width="10.358" height="5.438"/>
			<rect x="254.773" y="167.548" class="st5" width="20.004" height="5.438"/>
			<rect x="281.963" y="167.548" class="st5" width="10.358" height="5.438"/>
			<rect x="254.773" y="203.672" class="st5" width="20.004" height="5.438"/>
			<rect x="281.963" y="203.672" class="st5" width="10.358" height="5.438"/>
			<rect x="254.773" y="239.211" class="st5" width="20.004" height="5.438"/>
			<rect x="281.963" y="239.211" class="st5" width="10.358" height="5.438"/>
			<rect x="254.773" y="275.335" class="st5" width="20.004" height="5.438"/>
			<rect x="281.963" y="275.335" class="st5" width="10.358" height="5.438"/>
			<rect x="254.773" y="310.877" class="st5" width="20.004" height="5.438"/>
			<rect x="281.963" y="310.877" class="st5" width="10.358" height="5.438"/>
			<rect x="254.773" y="346.806" class="st5" width="20.004" height="5.438"/>
			<rect x="281.963" y="346.806" class="st5" width="10.358" height="5.438"/>
			<rect x="254.773" y="382.348" class="st5" width="20.004" height="5.438"/>
			<rect x="281.963" y="382.348" class="st5" width="10.358" height="5.438"/>
			<rect x="254.773" y="417.758" class="st5" width="20.004" height="5.438"/>
			<rect x="281.963" y="417.758" class="st5" width="10.358" height="5.438"/>
		</g>
		<rect x="228.49" y="121.778" class="st8" width="86.23" height="301.418"/>
		<g>
			<path class="st12" d="M783.939,121.778v-20.197H592.834h-4.661h-20.976h-17.866h-20.976h-17.869h-20.973h-17.868h-20.976h-17.867
				h-73.023v20.197h73.023v15.538h-73.023v20.199h73.023v15.536h-73.023v20.199h73.023v15.538h-73.023v20.197h73.023v15.538h-73.023
				v20.199h73.023v15.536h-73.023v20.198h73.023v15.538h-73.023v20.199h73.023v15.537h-73.023v20.196h73.023v15.538h-73.023v20.199
				h73.023v15.535h-73.023v20.199h73.023h17.867h20.976h17.868h20.973h17.869h20.976h17.866h20.976h4.661h191.105v-20.199H592.834
				v-15.535h191.105v-20.199H592.834v-15.538h191.105v-20.196H592.834V336.19h191.105v-20.199H592.834v-15.538h191.105v-20.198
				H592.834v-15.536h191.105v-20.199H592.834v-15.538h191.105v-20.197H592.834v-15.538h191.105V173.05H592.834v-15.536h191.105
				v-20.199H592.834v-15.538H783.939z M549.331,121.778v15.538h-20.976v-15.538H549.331z M510.486,193.249v15.538h-20.973v-15.538
				H510.486z M489.513,173.05v-15.536h20.973v15.536H489.513z M510.486,228.983v15.538h-20.973v-15.538H510.486z M510.486,264.719
				v15.536h-20.973v-15.536H510.486z M510.486,300.453v15.538h-20.973v-15.538H510.486z M510.486,336.19v15.537h-20.973V336.19
				H510.486z M510.486,371.924v15.538h-20.973v-15.538H510.486z M528.355,371.924h20.976v15.538h-20.976V371.924z M528.355,351.728
				V336.19h20.976v15.537H528.355z M528.355,315.991v-15.538h20.976v15.538H528.355z M528.355,280.255v-15.536h20.976v15.536
				H528.355z M528.355,244.521v-15.538h20.976v15.538H528.355z M528.355,208.786v-15.538h20.976v15.538H528.355z M528.355,173.05
				v-15.536h20.976v15.536H528.355z M510.486,121.778v15.538h-20.973v-15.538H510.486z M450.669,121.778h20.976v15.538h-20.976
				V121.778z M450.669,157.514h20.976v15.536h-20.976V157.514z M450.669,193.249h20.976v15.538h-20.976V193.249z M450.669,228.983
				h20.976v15.538h-20.976V228.983z M450.669,264.719h20.976v15.536h-20.976V264.719z M450.669,300.453h20.976v15.538h-20.976
				V300.453z M450.669,336.19h20.976v15.537h-20.976V336.19z M450.669,371.924h20.976v15.538h-20.976V371.924z M450.669,423.196
				v-15.535h20.976v15.535H450.669z M489.513,423.196v-15.535h20.973v15.535H489.513z M528.355,423.196v-15.535h20.976v15.535
				H528.355z M588.173,423.196h-20.976v-15.535h20.976V423.196z M588.173,387.462h-20.976v-15.538h20.976V387.462z M588.173,351.728
				h-20.976V336.19h20.976V351.728z M588.173,315.991h-20.976v-15.538h20.976V315.991z M588.173,280.255h-20.976v-15.536h20.976
				V280.255z M588.173,244.521h-20.976v-15.538h20.976V244.521z M588.173,208.786h-20.976v-15.538h20.976V208.786z M588.173,173.05
				h-20.976v-15.536h20.976V173.05z M588.173,137.315h-20.976v-15.538h20.976V137.315z"/>
			<polygon class="st12" points="216.06,101.581 216.06,121.778 216.06,137.315 216.06,157.514 216.06,173.05 216.06,193.249 
				216.06,208.786 216.06,228.983 216.06,244.521 216.06,264.719 216.06,280.255 216.06,300.453 216.06,315.991 216.06,336.19 
				216.06,351.728 216.06,371.924 216.06,387.462 216.06,407.661 216.06,423.196 216.06,443.396 228.49,443.396 315.498,443.396 
				315.498,423.196 228.49,423.196 228.49,407.661 315.498,407.661 315.498,387.462 228.49,387.462 228.49,371.924 315.498,371.924 
				315.498,351.728 228.49,351.728 228.49,336.19 315.498,336.19 315.498,315.991 228.49,315.991 228.49,300.453 315.498,300.453 
				315.498,280.255 228.49,280.255 228.49,264.719 315.498,264.719 315.498,244.521 228.49,244.521 228.49,228.983 315.498,228.983 
				315.498,208.786 228.49,208.786 228.49,193.249 315.498,193.249 315.498,173.05 228.49,173.05 228.49,157.514 315.498,157.514 
				315.498,137.315 228.49,137.315 228.49,121.778 315.498,121.778 315.498,101.581 228.49,101.581 			"/>
		</g>
		<g>
			<defs>
				<path id="SVGID_1_" d="M757.525,121.778v-20.197H592.834h-4.661h-20.976h-17.866h-20.976h-17.869h-20.973h-17.868h-20.976
					h-17.867h-73.023v20.197h73.023v15.538h-73.023v20.199h73.023v15.536h-73.023v20.199h73.023v15.538h-73.023v20.197h73.023
					v15.538h-73.023v20.199h73.023v15.536h-73.023v20.198h73.023v15.538h-73.023v20.199h73.023v15.537h-73.023v20.196h73.023v15.538
					h-73.023v20.199h73.023v15.535h-73.023v20.199h73.023h17.867h20.976h17.868h20.973h17.869h20.976h17.866h20.976h4.661h164.691
					v-20.199H592.834v-15.535h164.691v-20.199H592.834v-15.538h164.691v-20.196H592.834V336.19h164.691v-20.199H592.834v-15.538
					h164.691v-20.198H592.834v-15.536h164.691v-20.199H592.834v-15.538h164.691v-20.197H592.834v-15.538h164.691V173.05H592.834
					v-15.536h164.691v-20.199H592.834v-15.538H757.525z M549.331,121.778v15.538h-20.976v-15.538H549.331z M510.486,193.249v15.538
					h-20.973v-15.538H510.486z M489.513,173.05v-15.536h20.973v15.536H489.513z M510.486,228.983v15.538h-20.973v-15.538H510.486z
					 M510.486,264.719v15.536h-20.973v-15.536H510.486z M510.486,300.453v15.538h-20.973v-15.538H510.486z M510.486,336.19v15.537
					h-20.973V336.19H510.486z M510.486,371.924v15.538h-20.973v-15.538H510.486z M528.355,371.924h20.976v15.538h-20.976V371.924z
					 M528.355,351.728V336.19h20.976v15.537H528.355z M528.355,315.991v-15.538h20.976v15.538H528.355z M528.355,280.255v-15.536
					h20.976v15.536H528.355z M528.355,244.521v-15.538h20.976v15.538H528.355z M528.355,208.786v-15.538h20.976v15.538H528.355z
					 M528.355,173.05v-15.536h20.976v15.536H528.355z M510.486,121.778v15.538h-20.973v-15.538H510.486z M450.669,121.778h20.976
					v15.538h-20.976V121.778z M450.669,157.514h20.976v15.536h-20.976V157.514z M450.669,193.249h20.976v15.538h-20.976V193.249z
					 M450.669,228.983h20.976v15.538h-20.976V228.983z M450.669,264.719h20.976v15.536h-20.976V264.719z M450.669,300.453h20.976
					v15.538h-20.976V300.453z M450.669,336.19h20.976v15.537h-20.976V336.19z M450.669,371.924h20.976v15.538h-20.976V371.924z
					 M450.669,423.196v-15.535h20.976v15.535H450.669z M489.513,423.196v-15.535h20.973v15.535H489.513z M528.355,423.196v-15.535
					h20.976v15.535H528.355z M588.173,423.196h-20.976v-15.535h20.976V423.196z M588.173,387.462h-20.976v-15.538h20.976V387.462z
					 M588.173,351.728h-20.976V336.19h20.976V351.728z M588.173,315.991h-20.976v-15.538h20.976V315.991z M588.173,280.255h-20.976
					v-15.536h20.976V280.255z M588.173,244.521h-20.976v-15.538h20.976V244.521z M588.173,208.786h-20.976v-15.538h20.976V208.786z
					 M588.173,173.05h-20.976v-15.536h20.976V173.05z M588.173,137.315h-20.976v-15.538h20.976V137.315z"/>
			</defs>
			<clipPath id="SVGID_2_">
				<use xlink:href="#SVGID_1_"  style="overflow:visible;"/>
			</clipPath>
			<g class="st6">
				<path class="st9" d="M603.452,383.094C556.475,279.559,432.72,221.413,308.083,262.912
					c-70.494,23.47-124.114,72.405-150.909,130.003c27.395-50.517,76.573-92.818,139.831-113.881
					C417.329,238.973,536.8,295.105,582.15,395.058c65.006,143.27-39.258,221.034-159.583,261.098
					c-11.756,3.913-23.562,6.938-35.329,9.132c16.905-2.221,33.957-6.088,50.91-11.734
					C562.786,612.057,670.787,531.502,603.452,383.094z"/>
				<path class="st11" d="M582.15,395.058C536.8,295.105,417.329,238.973,297.006,279.034
					c-71.735,23.884-125.372,75.08-149.655,134.599c25.386-51.876,74.35-95.738,138.278-117.022
					c115.621-38.496,230.421,15.441,274,111.488c62.464,137.67-37.725,212.396-153.345,250.893
					c-10.474,3.486-20.989,6.237-31.478,8.303c15.867-2.173,31.86-5.845,47.762-11.139
					C542.893,616.092,647.156,538.327,582.15,395.058z"/>
				<path class="st1" d="M559.629,408.099c-43.578-96.047-158.379-149.984-274-111.488
					c-73.903,24.606-127.822,79.378-148.413,141.83c22.538-53.915,71.399-100.185,136.548-121.874
					c110.278-36.719,219.779,14.729,261.345,106.339c59.579,131.312-35.983,202.586-146.263,239.305
					c-8.894,2.961-17.82,5.366-26.73,7.248c14.678-2.113,29.463-5.571,44.167-10.467
					C521.904,620.495,622.093,545.769,559.629,408.099z"/>
				<path class="st14" d="M535.11,422.905c-41.566-91.61-151.067-143.058-261.345-106.339
					c-110.282,36.717-173.919,143.858-142.14,239.306c31.78,95.446,146.942,143.056,257.222,106.338
					C499.127,625.491,594.689,554.218,535.11,422.905z M374.732,658.624c-103.342,34.407-211.261-10.207-241.041-99.649
					c-29.781-89.443,29.854-189.845,133.199-224.253c103.342-34.408,205.954,13.802,244.906,99.65
					C567.626,557.424,478.077,624.216,374.732,658.624z"/>
				<path class="st10" d="M511.796,434.372c-38.952-85.849-141.563-134.059-244.906-99.65c-38.808,12.92-71.451,35.149-95.51,62.607
					c22.096-22.669,50.65-40.984,83.986-52.083c98.449-32.78,196.2,13.149,233.307,94.93
					c53.187,117.224-32.121,180.852-130.573,213.631c-51.291,17.078-103.759,13.711-146.274-5.473
					c46.146,24.074,105.235,29.493,162.906,10.29C478.077,624.216,567.626,557.424,511.796,434.372z"/>
				<path class="st15" d="M488.673,440.176c-37.106-81.78-134.857-127.71-233.307-94.93c-49.592,16.511-88.61,48.978-111.505,88.025
					c22.015-32.705,56.434-59.595,99.23-73.843c92.573-30.823,184.493,12.364,219.386,89.267
					c50.013,110.229-30.204,170.061-122.782,200.884c-43.909,14.62-88.735,13.303-126.583-0.659
					c42.282,18.674,94.215,21.792,144.988,4.887C456.552,621.027,541.859,557.399,488.673,440.176z"/>
			</g>
		</g>
		<g>
			<defs>
				<polygon id="SVGID_3_" points="216.06,101.581 216.06,121.778 216.06,137.315 216.06,157.514 216.06,173.05 216.06,193.249 
					216.06,208.786 216.06,228.983 216.06,244.521 216.06,264.719 216.06,280.255 216.06,300.453 216.06,315.991 216.06,336.19 
					216.06,351.728 216.06,371.924 216.06,387.462 216.06,407.661 216.06,423.196 216.06,443.396 228.49,443.396 315.498,443.396 
					315.498,423.196 228.49,423.196 228.49,407.661 315.498,407.661 315.498,387.462 228.49,387.462 228.49,371.924 
					315.498,371.924 315.498,351.728 228.49,351.728 228.49,336.19 315.498,336.19 315.498,315.991 228.49,315.991 228.49,300.453 
					315.498,300.453 315.498,280.255 228.49,280.255 228.49,264.719 315.498,264.719 315.498,244.521 228.49,244.521 
					228.49,228.983 315.498,228.983 315.498,208.786 228.49,208.786 228.49,193.249 315.498,193.249 315.498,173.05 228.49,173.05 
					228.49,157.514 315.498,157.514 315.498,137.315 228.49,137.315 228.49,121.778 315.498,121.778 315.498,101.581 
					228.49,101.581 				"/>
			</defs>
			<clipPath id="SVGID_4_">
				<use xlink:href="#SVGID_3_"  style="overflow:visible;"/>
			</clipPath>
			<g class="st7">
				<path class="st9" d="M603.452,383.094C556.475,279.559,432.72,221.413,308.083,262.912
					c-70.494,23.47-124.114,72.405-150.909,130.003c27.395-50.517,76.573-92.818,139.831-113.881
					C417.329,238.973,536.8,295.105,582.15,395.058c65.006,143.27-39.258,221.034-159.583,261.098
					c-11.756,3.913-23.562,6.938-35.329,9.132c16.905-2.221,33.957-6.088,50.91-11.734
					C562.786,612.057,670.787,531.502,603.452,383.094z"/>
				<path class="st11" d="M582.15,395.058C536.8,295.105,417.329,238.973,297.006,279.034
					c-71.735,23.884-125.372,75.08-149.655,134.599c25.386-51.876,74.35-95.738,138.278-117.022
					c115.621-38.496,230.421,15.441,274,111.488c62.464,137.67-37.725,212.396-153.345,250.893
					c-10.474,3.486-20.989,6.237-31.478,8.303c15.867-2.173,31.86-5.845,47.762-11.139
					C542.893,616.092,647.156,538.327,582.15,395.058z"/>
				<path class="st1" d="M559.629,408.099c-43.578-96.047-158.379-149.984-274-111.488
					c-73.903,24.606-127.822,79.378-148.413,141.83c22.538-53.915,71.399-100.185,136.548-121.874
					c110.278-36.719,219.779,14.729,261.345,106.339c59.579,131.312-35.983,202.586-146.263,239.305
					c-8.894,2.961-17.82,5.366-26.73,7.248c14.678-2.113,29.463-5.571,44.167-10.467
					C521.904,620.495,622.093,545.769,559.629,408.099z"/>
				<path class="st14" d="M535.11,422.905c-41.566-91.61-151.067-143.058-261.345-106.339
					c-110.282,36.717-173.919,143.858-142.14,239.306c31.78,95.446,146.942,143.056,257.222,106.338
					C499.127,625.491,594.689,554.218,535.11,422.905z M374.732,658.624c-103.342,34.407-211.261-10.207-241.041-99.649
					c-29.781-89.443,29.854-189.845,133.199-224.253c103.342-34.408,205.954,13.802,244.906,99.65
					C567.626,557.424,478.077,624.216,374.732,658.624z"/>
				<path class="st10" d="M511.796,434.372c-38.952-85.849-141.563-134.059-244.906-99.65c-38.808,12.92-71.451,35.149-95.51,62.607
					c22.096-22.669,50.65-40.984,83.986-52.083c98.449-32.78,196.2,13.149,233.307,94.93
					c53.187,117.224-32.121,180.852-130.573,213.631c-51.291,17.078-103.759,13.711-146.274-5.473
					c46.146,24.074,105.235,29.493,162.906,10.29C478.077,624.216,567.626,557.424,511.796,434.372z"/>
				<path class="st15" d="M488.673,440.176c-37.106-81.78-134.857-127.71-233.307-94.93c-49.592,16.511-88.61,48.978-111.505,88.025
					c22.015-32.705,56.434-59.595,99.23-73.843c92.573-30.823,184.493,12.364,219.386,89.267
					c50.013,110.229-30.204,170.061-122.782,200.884c-43.909,14.62-88.735,13.303-126.583-0.659
					c42.282,18.674,94.215,21.792,144.988,4.887C456.552,621.027,541.859,557.399,488.673,440.176z"/>
			</g>
		</g>
		<g>
			<defs>
				<polygon id="SVGID_5_" points="216.06,101.581 216.06,121.778 216.06,137.315 216.06,157.514 216.06,173.05 216.06,193.249 
					216.06,208.786 216.06,228.983 216.06,244.521 216.06,264.719 216.06,280.255 216.06,300.453 216.06,315.991 216.06,336.19 
					216.06,351.728 216.06,371.924 216.06,387.462 216.06,407.661 216.06,423.196 216.06,443.396 228.394,443.396 314.721,443.396 
					314.721,423.196 228.394,423.196 228.394,407.661 314.721,407.661 314.721,387.462 228.394,387.462 228.394,371.924 
					314.721,371.924 314.721,351.728 228.394,351.728 228.394,336.19 314.721,336.19 314.721,315.991 228.394,315.991 
					228.394,300.453 314.721,300.453 314.721,280.255 228.394,280.255 228.394,264.719 314.721,264.719 314.721,244.521 
					228.394,244.521 228.394,228.983 314.721,228.983 314.721,208.786 228.394,208.786 228.394,193.249 314.721,193.249 
					314.721,173.05 228.394,173.05 228.394,157.514 314.721,157.514 314.721,137.315 228.394,137.315 228.394,121.778 
					314.721,121.778 314.721,101.581 228.394,101.581 				"/>
			</defs>
			<clipPath id="SVGID_6_">
				<use xlink:href="#SVGID_5_"  style="overflow:visible;"/>
			</clipPath>
			<rect x="310.319" y="101.581" class="st0" width="4.402" height="341.814"/>
		</g>
		<g>
			<defs>
				<path id="SVGID_7_" d="M783.939,121.778v-20.197H592.834h-4.661h-20.976h-17.866h-20.976h-17.869h-20.973h-17.868h-20.976
					h-17.867h-73.023v20.197h73.023v15.538h-73.023v20.199h73.023v15.536h-73.023v20.199h73.023v15.538h-73.023v20.197h73.023
					v15.538h-73.023v20.199h73.023v15.536h-73.023v20.198h73.023v15.538h-73.023v20.199h73.023v15.537h-73.023v20.196h73.023v15.538
					h-73.023v20.199h73.023v15.535h-73.023v20.199h73.023h17.867h20.976h17.868h20.973h17.869h20.976h17.866h20.976h4.661h191.105
					v-20.199H592.834v-15.535h191.105v-20.199H592.834v-15.538h191.105v-20.196H592.834V336.19h191.105v-20.199H592.834v-15.538
					h191.105v-20.198H592.834v-15.536h191.105v-20.199H592.834v-15.538h191.105v-20.197H592.834v-15.538h191.105V173.05H592.834
					v-15.536h191.105v-20.199H592.834v-15.538H783.939z M549.331,121.778v15.538h-20.976v-15.538H549.331z M510.486,193.249v15.538
					h-20.973v-15.538H510.486z M489.513,173.05v-15.536h20.973v15.536H489.513z M510.486,228.983v15.538h-20.973v-15.538H510.486z
					 M510.486,264.719v15.536h-20.973v-15.536H510.486z M510.486,300.453v15.538h-20.973v-15.538H510.486z M510.486,336.19v15.537
					h-20.973V336.19H510.486z M510.486,371.924v15.538h-20.973v-15.538H510.486z M528.355,371.924h20.976v15.538h-20.976V371.924z
					 M528.355,351.728V336.19h20.976v15.537H528.355z M528.355,315.991v-15.538h20.976v15.538H528.355z M528.355,280.255v-15.536
					h20.976v15.536H528.355z M528.355,244.521v-15.538h20.976v15.538H528.355z M528.355,208.786v-15.538h20.976v15.538H528.355z
					 M528.355,173.05v-15.536h20.976v15.536H528.355z M510.486,121.778v15.538h-20.973v-15.538H510.486z M450.669,121.778h20.976
					v15.538h-20.976V121.778z M450.669,157.514h20.976v15.536h-20.976V157.514z M450.669,193.249h20.976v15.538h-20.976V193.249z
					 M450.669,228.983h20.976v15.538h-20.976V228.983z M450.669,264.719h20.976v15.536h-20.976V264.719z M450.669,300.453h20.976
					v15.538h-20.976V300.453z M450.669,336.19h20.976v15.537h-20.976V336.19z M450.669,371.924h20.976v15.538h-20.976V371.924z
					 M450.669,423.196v-15.535h20.976v15.535H450.669z M489.513,423.196v-15.535h20.973v15.535H489.513z M528.355,423.196v-15.535
					h20.976v15.535H528.355z M588.173,423.196h-20.976v-15.535h20.976V423.196z M588.173,387.462h-20.976v-15.538h20.976V387.462z
					 M588.173,351.728h-20.976V336.19h20.976V351.728z M588.173,315.991h-20.976v-15.538h20.976V315.991z M588.173,280.255h-20.976
					v-15.536h20.976V280.255z M588.173,244.521h-20.976v-15.538h20.976V244.521z M588.173,208.786h-20.976v-15.538h20.976V208.786z
					 M588.173,173.05h-20.976v-15.536h20.976V173.05z M588.173,137.315h-20.976v-15.538h20.976V137.315z"/>
			</defs>
			<clipPath id="SVGID_8_">
				<use xlink:href="#SVGID_7_"  style="overflow:visible;"/>
			</clipPath>
			<rect x="359.779" y="101.581" class="st2" width="24.859" height="341.814"/>
		</g>
		<rect x="432.802" y="121.778" class="st4" width="160.032" height="2.331"/>
		<rect x="432.802" y="157.514" class="st4" width="160.032" height="2.331"/>
		<rect x="432.802" y="193.345" class="st4" width="160.032" height="2.331"/>
		<rect x="432.802" y="229.081" class="st4" width="160.032" height="2.331"/>
		<rect x="432.802" y="264.719" class="st4" width="160.032" height="2.331"/>
		<rect x="432.802" y="300.453" class="st4" width="160.032" height="2.331"/>
		<rect x="432.802" y="336.19" class="st4" width="160.032" height="2.33"/>
		<rect x="432.802" y="371.924" class="st4" width="160.032" height="2.331"/>
		<rect x="432.802" y="407.661" class="st4" width="160.032" height="2.328"/>
	</g>
</g>
</svg>
