<svg height="511pt" viewBox="-42 0 511 511.99877" width="511pt" xmlns="http://www.w3.org/2000/svg"><path d="m414.214844 187.902344c-4.5-19.261719-8.382813-35.902344-8.382813-59.902344 0-52.824219 18.945313-78.613281 19.117188-78.804688 3.285156-4.246093 2.898437-10.285156-.898438-14.082031l-32-32c-3.347656-3.347656-8.46875-4.054687-12.628906-1.835937-.382813.214844-37.484375 20.054687-80.253906 20.054687-42.773438 0-79.875-19.839843-80.238281-20.03125-3.15625-1.707031-7.015626-1.707031-10.195313 0-.363281.191407-37.460937 20.03125-80.234375 20.03125s-79.871094-19.839843-80.234375-20.03125c-4.160156-2.242187-9.300781-1.515625-12.652344 1.8125l-32 32c-3.753906 3.777344-4.117187 9.769531-.917969 14.015625.195313.257813 19.136719 26.046875 19.136719 78.871094 0 24-3.882812 40.640625-8.382812 59.902344-6.058594 26.003906-12.949219 55.46875-12.949219 110.761718 0 101.355469 78.804688 147.796876 208.597656 212.226563 1.492188.722656 3.113282 1.109375 4.734375 1.109375 1.621094 0 3.242188-.386719 4.738281-1.109375 129.789063-64.429687 208.597657-110.871094 208.597657-212.226563 0-55.292968-6.894531-84.757812-12.953125-110.761718zm0 0" fill="#ffc107"/><path d="m330.613281 209.960938c-1.28125-3.839844-4.609375-6.613282-8.597656-7.1875l-68.738281-9.816407-29.652344-69.160156c-3.351562-7.851563-16.257812-7.851563-19.605469 0l-29.652343 69.160156-68.738282 9.816407c-3.96875.574218-7.316406 3.347656-8.574218 7.1875-1.28125 3.839843-.277344 8.066406 2.582031 10.921874l49.066406 49.066407-19.863281 79.488281c-1.042969 4.140625.492187 8.492188 3.90625 11.09375 3.410156 2.582031 8.019531 2.878906 11.730468.769531l69.355469-39.679687 69.375 39.636718c1.644531.960938 3.480469 1.40625 5.292969 1.40625 2.28125 0 4.542969-.722656 6.441406-2.175781 3.414063-2.582031 4.949219-6.933593 3.90625-11.09375l-19.863281-79.488281 49.066406-49.066406c2.839844-2.8125 3.839844-7.058594 2.5625-10.878906zm0 0" fill="#ffa000"/><path d="m288.5 362.664062c-1.8125 0-3.648438-.46875-5.292969-1.40625l-69.375-39.636718-69.375 39.636718c-3.710937 2.113282-8.320312 1.8125-11.734375-.769531-3.414062-2.582031-4.949218-6.933593-3.902344-11.09375l19.859376-79.488281-49.066407-49.066406c-2.859375-2.855469-3.859375-7.082032-2.582031-10.921875 1.28125-3.839844 4.609375-6.613281 8.597656-7.1875l68.738282-9.8125 29.652343-69.164063c3.347657-7.851562 16.253907-7.851562 19.605469 0l29.652344 69.164063 68.738281 9.8125c4.007813.574219 7.335937 3.347656 8.597656 7.1875 1.277344 3.839843.277344 8.066406-2.582031 10.921875l-49.066406 49.066406 19.859375 79.488281c1.046875 4.140625-.488281 8.511719-3.902344 11.09375-1.878906 1.453125-4.140625 2.175781-6.421875 2.175781zm-74.667969-64c1.8125 0 3.648438.472657 5.292969 1.410157l52.96875 30.25-15.273438-61.078125c-.917968-3.625.148438-7.488282 2.792969-10.132813l38.25-38.25-53.546875-7.636719c-3.6875-.535156-6.824218-2.945312-8.296875-6.359374l-22.1875-51.773438-22.207031 51.773438c-1.472656 3.4375-4.609375 5.824218-8.300781 6.359374l-53.542969 7.636719 38.25 38.25c2.644531 2.644531 3.710938 6.484375 2.792969 10.132813l-15.273438 61.078125 52.96875-30.25c1.664063-.9375 3.5-1.410157 5.3125-1.410157zm0 0"/><path d="m213.832031 512c-1.621093 0-3.242187-.386719-4.734375-1.109375-129.792968-64.449219-208.597656-110.890625-208.597656-212.226563 0-55.292968 6.890625-84.757812 12.949219-110.761718 4.5-19.261719 8.382812-35.902344 8.382812-59.902344 0-52.824219-18.941406-78.613281-19.136719-78.871094-3.199218-4.246094-2.816406-10.238281.941407-14.015625l32-32c3.328125-3.328125 8.46875-4.054687 12.628906-1.835937.363281.214844 37.460937 20.054687 80.234375 20.054687s79.871094-19.839843 80.234375-20.03125c3.15625-1.707031 7.019531-1.707031 10.195313 0 .363281.191407 37.464843 20.03125 80.238281 20.03125 42.769531 0 79.871093-19.839843 80.234375-20.03125 4.179687-2.21875 9.300781-1.492187 12.628906 1.835938l32 32c3.796875 3.796875 4.179688 9.8125.894531 14.078125-.148437.171875-19.09375 25.960937-19.09375 78.785156 0 24 3.882813 40.640625 8.382813 59.902344 6.058594 26.003906 12.953125 55.46875 12.953125 110.761718 0 101.335938-78.808594 147.777344-208.597657 212.226563-1.496093.722656-3.117187 1.109375-4.738281 1.109375zm-189.160156-467.757812c6.929687 12.695312 18.496094 40.34375 18.496094 83.757812 0 26.472656-4.355469 45.054688-8.941407 64.746094-5.800781 24.894531-12.394531 53.078125-12.394531 105.917968 0 89.644532 72.832031 131.457032 192 190.742188 119.167969-59.304688 192-101.121094 192-190.742188 0-52.839843-6.589843-81.023437-12.394531-105.917968-4.585938-19.691406-8.9375-38.273438-8.9375-64.746094 0-43.414062 11.5625-71.0625 18.496094-83.757812l-20.652344-20.628907c-13.929688 6.378907-46.226562 19.050781-83.175781 19.050781-39.019531 0-72.832031-14.121093-85.335938-20.074218-12.5 5.953125-46.3125 20.074218-85.332031 20.074218-36.949219 0-69.25-12.671874-83.179688-19.070312zm0 0"/></svg>