<svg height="512pt" viewBox="-32 0 512 512.05333" width="512pt" xmlns="http://www.w3.org/2000/svg"><path d="m448.039062 74.71875v88.535156l-224-67.199218-223.9999995 67.199218v-88.535156c0-4.691406 2.9843755-8.957031 7.6796875-10.238281l213.332031-64c1.921875-.640625 4.054688-.640625 5.972657 0l213.335937 64c4.691406 1.28125 7.679687 5.546875 7.679687 10.238281zm0 0" fill="#0097a7"/><path d="m448.039062 163.253906v146.132813c0 94.292969-143.789062 178.132812-220.800781 202.238281-1.066406.214844-2.132812.429688-3.199219.429688-1.066406 0-2.132812-.214844-3.203124-.429688-77.011719-24.105469-220.7968755-107.945312-220.7968755-202.238281v-146.132813l223.9999995-67.199218zm0 0" fill="#00bcd4"/><path d="m319.546875 263.457031c-1.238281-3.796875-4.480469-6.613281-8.425781-7.253906l-58.089844-9.6875-19.117188-47.761719c-3.199218-8.109375-16.574218-8.109375-19.796874 0l-19.113282 47.761719-58.089844 9.6875c-3.949218.660156-7.191406 3.457031-8.429687 7.253906-1.214844 3.816407-.210937 7.976563 2.625 10.792969l38.785156 38.785156-9.773437 58.601563c-.679688 4.097656 1.089844 8.234375 4.523437 10.5625 3.457031 2.34375 7.914063 2.492187 11.476563.339843l47.917968-28.714843 47.847657 28.714843c1.6875 1.023438 3.585937 1.515626 5.484375 1.515626 2.113281 0 4.179687-.621094 5.996094-1.855469 3.433593-2.328125 5.203124-6.464844 4.519531-10.5625l-9.769531-58.601563 38.785156-38.785156c2.835937-2.816406 3.839844-6.976562 2.644531-10.792969zm0 0" fill="#fafafa"/><path d="m224.039062 512.054688c-1.066406 0-2.15625-.171876-3.160156-.46875-77.011718-23.980469-220.8398435-107.882813-220.8398435-202.199219v-234.667969c0-4.714844 3.0937495-8.851562 7.5937495-10.21875l213.332032-64c2.007812-.617188 4.117187-.617188 6.125 0l213.332031 64c4.523437 1.367188 7.617187 5.503906 7.617187 10.21875v234.667969c0 94.316406-143.832031 178.21875-220.84375 202.199219-1.003906.296874-2.089843.46875-3.15625.46875zm-202.667968-429.398438v226.730469c0 74.878906 118.675781 153.644531 202.667968 180.820312 83.988282-27.15625 202.664063-105.941406 202.664063-180.820312v-226.730469l-202.664063-60.800781zm0 0"/><path d="m277.371094 384.054688c-1.898438 0-3.796875-.492188-5.484375-1.515626l-47.847657-28.714843-47.851562 28.714843c-3.5625 2.152344-8.042969 2.003907-11.476562-.339843-3.4375-2.347657-5.207032-6.464844-4.523438-10.5625l9.769531-58.582031-38.785156-38.78125c-2.835937-2.839844-3.839844-7-2.621094-10.796876 1.234375-3.816406 4.480469-6.632812 8.425781-7.273437l58.089844-9.6875 19.117188-47.742187c3.199218-8.128907 16.574218-8.128907 19.796875 0l19.113281 47.742187 58.089844 9.6875c3.949218.640625 7.191406 3.457031 8.425781 7.273437 1.21875 3.796876.214844 7.957032-2.621094 10.796876l-38.785156 38.78125 9.769531 58.582031c.683594 4.097656-1.085937 8.234375-4.523437 10.5625-1.898438 1.234375-3.964844 1.855469-6.078125 1.855469zm-53.332032-53.335938c1.898438 0 3.796876.492188 5.480469 1.515625l33.535157 20.117187-6.867188-41.238281c-.554688-3.390625.53125-6.847656 2.984375-9.300781l27.992187-28.011719-43.542968-7.25c-3.691406-.597656-6.761719-3.117187-8.148438-6.570312l-11.433594-28.523438-11.4375 28.5625c-1.363281 3.457031-4.457031 5.953125-8.148437 6.574219l-43.539063 7.25 27.988282 28.011719c2.429687 2.433593 3.539062 5.886719 2.984375 9.300781l-6.867188 41.238281 33.535157-20.117187c1.6875-1.066406 3.585937-1.558594 5.484374-1.558594zm0 0"/><path d="m437.371094 170.71875c-1.023438 0-2.046875-.148438-3.070313-.445312l-210.261719-63.085938-210.261718 63.085938c-5.589844 1.683593-11.605469-1.515626-13.292969-7.148438-1.707031-5.652344 1.496094-11.582031 7.148437-13.269531l213.332032-64c2.007812-.617188 4.117187-.617188 6.125 0l213.332031 64c5.652344 1.6875 8.851563 7.617187 7.148437 13.269531-1.367187 4.609375-5.613281 7.59375-10.199218 7.59375zm0 0"/></svg>